<svg width="14" height="14" viewBox="0 0 14 14" fill="none" xmlns="http://www.w3.org/2000/svg">
<path d="M7 14C3.12941 14 0 10.8706 0 7C0 3.12941 3.12941 0 7 0C10.8706 0 14 3.12941 14 7C14 10.8706 10.8706 14 7 14ZM7 0.823529C3.58235 0.823529 0.823529 3.58235 0.823529 7C0.823529 10.4176 3.58235 13.1765 7 13.1765C10.4176 13.1765 13.1765 10.4176 13.1765 7C13.1765 3.58235 10.4176 0.823529 7 0.823529Z" fill="#24ADFF"/>
<path d="M6.17647 10.0471L2.59412 6.46474L3.17059 5.88827L6.17647 8.89415L10.8294 4.24121L11.4059 4.81768L6.17647 10.0471Z" fill="#24ADFF"/>
</svg>
