<svg width="13" height="14" viewBox="0 0 13 14" fill="none" xmlns="http://www.w3.org/2000/svg">
<path d="M6.5 5.5C9.81371 5.5 12.5 4.38071 12.5 3C12.5 1.61929 9.81371 0.5 6.5 0.5C3.18629 0.5 0.5 1.61929 0.5 3C0.5 4.38071 3.18629 5.5 6.5 5.5Z" stroke="#232F40" stroke-opacity="0.7" stroke-miterlimit="10" stroke-linecap="round"/>
<path d="M12.5 5.6875C12.5 7.06813 9.8125 8.1875 6.5 8.1875C3.1875 8.1875 0.5 7.06813 0.5 5.6875M12.5 8.375C12.5 9.75563 9.8125 10.875 6.5 10.875C3.1875 10.875 0.5 9.75563 0.5 8.375" stroke="#232F40" stroke-opacity="0.7" stroke-miterlimit="10" stroke-linecap="round"/>
<path d="M0.5 2.97632V11.0238C0.5 12.3913 3.1875 13.5001 6.5 13.5001C9.8125 13.5001 12.5 12.3913 12.5 11.0238V2.97632" stroke="#232F40" stroke-opacity="0.7" stroke-miterlimit="10" stroke-linecap="round"/>
</svg>
