<svg width="16" height="12" viewBox="0 0 16 12" fill="none" xmlns="http://www.w3.org/2000/svg">
<path d="M1.43644 12C1.02696 12 0.685333 11.868 0.411556 11.604C0.137778 11.34 0.000592593 11.0103 0 10.6149V1.38514C0 0.990286 0.137185 0.660857 0.411556 0.396857C0.685926 0.132857 1.02726 0.000571429 1.43556 0H14.5644C14.9733 0 15.3147 0.132286 15.5884 0.396857C15.8622 0.661428 15.9994 0.990857 16 1.38514V10.6157C16 11.01 15.8628 11.3394 15.5884 11.604C15.3141 11.8686 14.9727 12.0006 14.5644 12H1.43644ZM8 6.09943L0.888889 1.61571V10.6157C0.888889 10.7694 0.940148 10.8957 1.04267 10.9946C1.14519 11.0934 1.27644 11.1429 1.43644 11.1429H14.5644C14.7239 11.1429 14.8548 11.0934 14.9573 10.9946C15.0599 10.8957 15.1111 10.7691 15.1111 10.6149V1.61486L8 6.09943ZM8 5.14286L14.8373 0.857143H1.16267L8 5.14286ZM0.888889 1.61571V0.857143V10.6157C0.888889 10.7694 0.940148 10.8957 1.04267 10.9946C1.14519 11.0934 1.27644 11.1429 1.43644 11.1429H0.888889V1.61571Z" fill="#232F40" fill-opacity="0.7"/>
</svg>
