<svg width="40" height="41" viewBox="0 0 40 41" fill="none" xmlns="http://www.w3.org/2000/svg">
<path d="M38.7456 1.22466C38.728 0.824001 38.3185 0.641319 37.909 0.458638C30.2083 -1.20934 22.1095 1.75672 17.366 7.98719L14.8941 11.1068L9.4234 9.94278C7.18448 9.23853 5.02498 10.3372 4.11157 12.3847L0.231146 19.9821C0.231146 19.9821 0.23997 20.1825 0.0396412 20.1913C-0.134216 20.8011 0.28409 21.1841 0.893902 21.358L7.76686 22.4603C7.24529 24.2897 6.72372 26.1191 6.6028 27.9309C6.62045 28.3316 6.62928 28.5319 6.83843 28.7234L13.1042 34.2682C13.3134 34.4597 13.5137 34.4509 13.9143 34.4333C15.7085 34.1535 17.6941 33.6646 19.4706 32.9842L21.1641 39.5333C21.1818 39.934 21.8004 40.3082 22.2011 40.2905C22.4014 40.2817 22.6017 40.2729 22.5929 40.0725L29.8198 35.5391C31.5786 34.4581 32.2829 32.2192 31.794 30.2335L30.1358 24.4857L32.8257 21.7579C38.8329 16.8768 41.0842 8.74893 38.7456 1.22466ZM2.62627 19.6759L5.75833 13.3157C6.30637 12.0873 7.4907 11.6337 8.71032 11.9814L13.3708 12.9804L11.4734 15.4726C10.342 17.1282 9.21066 18.7837 8.48876 20.622L2.62627 19.6759ZM28.9655 34.3725L22.9141 38.2519L21.4563 32.4953C23.2239 31.6146 24.7736 30.342 26.3233 29.0695L28.8217 26.5508L30.2266 31.1054C30.2796 32.3074 29.9407 33.7274 28.9655 34.3725ZM31.5796 20.8092L24.8504 27.5286C21.9602 30.2652 18.2245 32.0355 14.2356 32.6127L8.7976 27.6335C9.22211 23.6005 10.6571 19.7236 13.129 16.604L16.1754 12.8569L16.367 12.6477L19.0304 9.3189C23.2082 3.91622 30.3142 1.19461 36.9868 2.30572C38.6891 9.05515 36.7943 16.1637 31.5796 20.8092ZM28.5844 7.49305C26.3808 7.59011 24.8576 9.46367 24.9458 11.467C25.0341 13.4703 26.9164 15.1938 28.9197 15.1056C31.1233 15.0085 32.6466 13.1349 32.5583 11.1316C32.4701 9.12836 30.788 7.39599 28.5844 7.49305ZM28.8403 13.3026C27.8387 13.3467 27.002 12.5807 26.9579 11.579C26.9138 10.5774 27.6798 9.74079 28.6815 9.69667C29.6831 9.65255 30.5197 10.4186 30.5639 11.4202C30.608 12.4219 29.8419 13.2585 28.8403 13.3026Z" fill="#24ADFF"/>
</svg>
