<svg width="30" height="35" viewBox="0 0 30 35" fill="none" xmlns="http://www.w3.org/2000/svg">
<path d="M12.5 18.2375L9.2625 15L7.5 16.7625L12.5 21.7625L22.5 11.7625L20.7375 10L12.5 18.2375Z" fill="#24ADFF"/>
<path d="M15 35L7.28001 30.8838C5.079 29.7131 3.23839 27.9651 1.9558 25.8274C0.673215 23.6896 -0.00291282 21.243 9.43254e-06 18.75V2.5C9.43254e-06 1.83696 0.263401 1.20107 0.732242 0.732233C1.20108 0.263392 1.83697 0 2.50001 0H27.5C28.1631 0 28.7989 0.263392 29.2678 0.732233C29.7366 1.20107 30 1.83696 30 2.5V18.75C30.0029 21.243 29.3268 23.6896 28.0442 25.8274C26.7616 27.9651 24.921 29.7131 22.72 30.8838L15 35ZM2.50001 2.5V18.75C2.49862 20.7896 3.05236 22.7912 4.10186 24.54C5.15136 26.2889 6.65705 27.7192 8.45751 28.6775L15 32.1662L21.5425 28.6788C23.3432 27.7203 24.849 26.2899 25.8985 24.5407C26.948 22.7916 27.5016 20.7898 27.5 18.75V2.5H2.50001Z" fill="#24ADFF"/>
</svg>
