<svg width="40" height="40" viewBox="0 0 40 40" fill="none" xmlns="http://www.w3.org/2000/svg">
<path d="M20 0C8.972 0 0 8.972 0 20V28.286C0 30.334 1.794 32 4 32H6C6.53043 32 7.03914 31.7893 7.41421 31.4142C7.78929 31.0391 8 30.5304 8 30V19.714C8 19.1836 7.78929 18.6749 7.41421 18.2998C7.03914 17.9247 6.53043 17.714 6 17.714H4.184C5.296 9.974 11.956 4 20 4C28.044 4 34.704 9.974 35.816 17.714H34C33.4696 17.714 32.9609 17.9247 32.5858 18.2998C32.2107 18.6749 32 19.1836 32 19.714V32C32 34.206 30.206 36 28 36H24V34H16V40H28C32.412 40 36 36.412 36 32C38.206 32 40 30.334 40 28.286V20C40 8.972 31.028 0 20 0Z" fill="#24ADFF"/>
</svg>
