<svg width="32" height="32" viewBox="0 0 32 32" fill="none" xmlns="http://www.w3.org/2000/svg">
<path d="M14.5108 0.0448497C5.8844 0.69473 -0.605008 8.24158 0.0448719 16.868L0.533166 23.3495C0.653854 24.9515 2.15534 26.1489 3.88093 26.0189L5.44539 25.9011C5.8603 25.8698 6.24581 25.675 6.5171 25.3595C6.78839 25.044 6.92324 24.6337 6.89198 24.2188L6.28582 16.1728C6.25456 15.7579 6.05976 15.3724 5.74427 15.1011C5.42877 14.8298 5.01843 14.695 4.60351 14.7262L3.18299 14.8332C3.59671 8.71328 8.45428 3.64779 14.7465 3.17375C21.0387 2.69972 26.6004 6.98026 27.9264 12.9692L26.5058 13.0762C26.0909 13.1074 25.7054 13.3022 25.4341 13.6177C25.1628 13.9332 25.028 14.3436 25.0592 14.7585L25.7833 24.3689C25.9133 26.0945 24.6157 27.6035 22.8901 27.7335L19.7612 27.9693L19.6433 26.4048L13.3855 26.8762L13.7391 31.5696L23.1258 30.8624C26.577 30.6024 29.1722 27.5844 28.9122 24.1332C30.6377 24.0032 31.9429 22.5943 31.8222 20.9923L31.3339 14.5108C30.684 5.88438 23.1372 -0.60503 14.5108 0.0448497Z" fill="#24ADFF"/>
</svg>
