<svg width="40" height="40" viewBox="0 0 40 40" fill="none" xmlns="http://www.w3.org/2000/svg">
<path d="M34.0414 4.39758C34.0276 4.0841 33.7073 3.94117 33.3869 3.79825C27.3618 2.49323 21.0254 4.81386 17.3141 9.68855L15.3801 12.1293L11.0999 11.2186C9.34816 10.6676 7.65857 11.5272 6.94393 13.1291L3.9079 19.0733C3.9079 19.0733 3.91481 19.2301 3.75807 19.237C3.62204 19.7141 3.94933 20.0137 4.42644 20.1498L9.80381 21.0122C9.39573 22.4435 8.98766 23.8749 8.89305 25.2924C8.90686 25.6059 8.91377 25.7626 9.07741 25.9124L13.9797 30.2507C14.1434 30.4005 14.3001 30.3936 14.6136 30.3798C16.0173 30.1609 17.5708 29.7784 18.9608 29.2461L20.2857 34.3701C20.2995 34.6835 20.7836 34.9763 21.097 34.9625C21.2538 34.9556 21.4105 34.9487 21.4036 34.7919L27.0579 31.245C28.434 30.3992 28.985 28.6475 28.6025 27.0939L27.3051 22.5969L29.4097 20.4627C34.1097 16.6437 35.8711 10.2845 34.0414 4.39758ZM5.78184 18.8337L8.23234 13.8575C8.66113 12.8964 9.58774 12.5415 10.542 12.8136L14.1883 13.5952L12.7038 15.5451C11.8186 16.8404 10.9334 18.1357 10.3686 19.5739L5.78184 18.8337ZM26.3895 30.3322L21.6549 33.3675L20.5143 28.8636C21.8973 28.1745 23.1098 27.1788 24.3223 26.1832L26.277 24.2126L27.3762 27.7761C27.4176 28.7165 27.1525 29.8275 26.3895 30.3322ZM28.4347 19.7204L23.1699 24.9776C20.9086 27.1188 17.9858 28.5038 14.8649 28.9554L10.6103 25.0597C10.9424 21.9043 12.0651 18.8711 13.9991 16.4303L16.3826 13.4985L16.5325 13.3349L18.6163 10.7305C21.885 6.50344 27.4447 4.37406 32.6653 5.24339C33.9972 10.5241 32.5147 16.0858 28.4347 19.7204ZM26.0913 9.30193C24.3672 9.37787 23.1755 10.8437 23.2445 12.4111C23.3136 13.9785 24.7863 15.327 26.3537 15.2579C28.0778 15.182 29.2695 13.7161 29.2005 12.1488C29.1315 10.5814 27.8154 9.22599 26.0913 9.30193ZM26.2916 13.8473C25.5079 13.8818 24.8533 13.2825 24.8188 12.4988C24.7843 11.7151 25.3836 11.0606 26.1673 11.026C26.951 10.9915 27.6055 11.5908 27.64 12.3745C27.6746 13.1582 27.0752 13.8128 26.2916 13.8473Z" fill="#24ADFF"/>
</svg>
